<svg width="205" height="62" viewBox="0 0 205 62" fill="none" xmlns="http://www.w3.org/2000/svg">
<path d="M46.9716 32.5791C46.7975 32.9781 46.6212 33.377 46.4448 33.7738C45.8365 33.8311 45.14 33.9038 44.481 33.9964C42.7529 34.2366 40.5819 34.9331 36.2596 36.9477C31.9395 38.9667 28.2674 43.6483 25.3514 47.8956C22.4353 52.1452 19.5545 61.6163 17.2137 61.9756C14.8751 62.3371 12.9664 58.5922 12.0649 57.0802C11.1656 55.566 8.93281 50.8491 7.92552 48.4731C6.91824 46.0948 3.94046 37.6222 2.3557 32.0524C0.773133 26.4803 0.149364 21.1045 0.00389208 14.1416C-0.139376 7.17878 3.70021 3.3392 6.96453 2.04317C7.00861 2.02554 7.05049 2.01011 7.09677 1.99468C8.78734 1.40397 11.7365 1.85582 15.1925 3.19152C18.5979 4.50959 22.4948 6.68947 26.1559 9.58128C26.1559 9.58128 19.8432 6.69828 15.4504 6.80849C11.0576 6.91649 7.99826 9.36528 6.41349 12.5326C4.82873 15.7021 4.46945 22.2572 5.04473 27.5868C5.62221 32.9164 7.92552 41.1267 9.36482 45.5923C10.8063 50.0579 13.3631 54.1267 14.9831 55.2067C16.6032 56.2867 17.5752 54.6667 19.6867 50.1042C21.7983 45.5438 27.3196 40.3575 30.1034 38.1005C32.6801 36.0132 40.8243 33.0817 46.9716 32.5791Z" fill="#0275D8"/>
<path d="M6.77271 1.13064C9.12451 0.121146 14.7891 0.601646 20.2135 3.6742C25.64 6.74675 30.1034 9.3873 35.4793 7.89951C40.8573 6.41172 47.1942 4.39495 51.0823 6.5065C54.9703 8.62026 54.9219 14.2849 53.3856 20.0487C51.8493 25.8102 45.6094 40.406 42.4399 44.9685C39.2726 49.5289 38.2653 51.4024 38.2653 51.4024C59.0502 30.084 61.2102 12.8941 60.4189 9.58126C59.6277 6.26846 58.7152 4.97023 57.0819 3.91445C55.4508 2.85867 51.274 0.747119 45.5124 2.37817C39.7531 4.01143 37.5445 5.16198 36.0082 5.69098C34.472 6.21997 30.5596 6.55499 28.4481 5.97972C26.3343 5.40223 19.3495 1.03365 15.5584 0.312906C9.90477 -0.718626 6.77271 1.13064 6.77271 1.13064Z" fill="#0275D8"/>
<path d="M73.9921 31.232C72.6641 31.232 71.4721 30.976 70.4161 30.464C69.3761 29.936 68.5601 29.216 67.9681 28.304C67.3761 27.376 67.0801 26.352 67.0801 25.232V19.952C67.0801 18.832 67.3761 17.824 67.9681 16.928C68.5601 16.016 69.3761 15.304 70.4161 14.792C71.4721 14.264 72.6641 14 73.9921 14C75.3361 14 76.5281 14.264 77.5681 14.792C78.6241 15.304 79.4481 16.016 80.0401 16.928C80.6321 17.824 80.9281 18.832 80.9281 19.952V25.232C80.9281 26.352 80.6321 27.376 80.0401 28.304C79.4481 29.216 78.6241 29.936 77.5681 30.464C76.5121 30.976 75.3201 31.232 73.9921 31.232ZM73.9921 29.264C75.4801 29.264 76.6401 28.896 77.4721 28.16C78.3041 27.424 78.7201 26.44 78.7201 25.208V20C78.7201 18.768 78.3041 17.792 77.4721 17.072C76.6401 16.336 75.4801 15.968 73.9921 15.968C72.5201 15.968 71.3681 16.336 70.5361 17.072C69.7041 17.792 69.2881 18.768 69.2881 20V25.208C69.2881 26.44 69.7041 27.424 70.5361 28.16C71.3681 28.896 72.5201 29.264 73.9921 29.264Z" fill="#003366"/>
<path d="M84.8399 31.016C84.5199 31.016 84.2479 30.92 84.0239 30.728C83.7999 30.52 83.6879 30.264 83.6879 29.96V15.272C83.6879 14.968 83.7919 14.72 83.9999 14.528C84.2239 14.32 84.5039 14.216 84.8399 14.216H90.4559C91.8159 14.216 93.0159 14.472 94.0559 14.984C95.0959 15.496 95.9039 16.216 96.4799 17.144C97.0719 18.056 97.3679 19.104 97.3679 20.288V24.896C97.3679 26.08 97.0719 27.136 96.4799 28.064C95.9039 28.992 95.0879 29.72 94.0319 30.248C92.9919 30.76 91.7999 31.016 90.4559 31.016H84.8399ZM90.2159 29.048C91.7519 29.048 92.9519 28.688 93.8159 27.968C94.6799 27.232 95.1119 26.216 95.1119 24.92V20.264C95.1119 18.984 94.6799 17.984 93.8159 17.264C92.9519 16.544 91.7519 16.184 90.2159 16.184H85.9439V29.048H90.2159Z" fill="#003366"/>
<path d="M106.805 31.232C105.477 31.232 104.285 30.976 103.229 30.464C102.189 29.936 101.373 29.216 100.781 28.304C100.189 27.376 99.8926 26.352 99.8926 25.232V19.952C99.8926 18.832 100.189 17.824 100.781 16.928C101.373 16.016 102.189 15.304 103.229 14.792C104.285 14.264 105.477 14 106.805 14C108.149 14 109.341 14.264 110.381 14.792C111.437 15.304 112.261 16.016 112.853 16.928C113.445 17.824 113.741 18.832 113.741 19.952V25.232C113.741 26.352 113.445 27.376 112.853 28.304C112.261 29.216 111.437 29.936 110.381 30.464C109.325 30.976 108.133 31.232 106.805 31.232ZM106.805 29.264C108.293 29.264 109.453 28.896 110.285 28.16C111.117 27.424 111.533 26.44 111.533 25.208V20C111.533 18.768 111.117 17.792 110.285 17.072C109.453 16.336 108.293 15.968 106.805 15.968C105.333 15.968 104.181 16.336 103.349 17.072C102.517 17.792 102.101 18.768 102.101 20V25.208C102.101 26.44 102.517 27.424 103.349 28.16C104.181 28.896 105.333 29.264 106.805 29.264Z" fill="#003366"/>
<path d="M116.5 15.944C116.5 15.336 116.684 14.864 117.052 14.528C117.436 14.176 117.964 14 118.636 14L127.948 28.16L128.116 28.016L127.42 26.864V14C128.156 14 128.708 14.16 129.076 14.48C129.46 14.8 129.652 15.264 129.652 15.872V29.456C129.652 29.968 129.468 30.392 129.1 30.728C128.748 31.064 128.292 31.232 127.732 31.232L118.204 16.76L118.036 16.904L118.732 18.056V29.36C118.732 29.968 118.54 30.432 118.156 30.752C117.788 31.072 117.236 31.232 116.5 31.232V15.944Z" fill="#003366"/>
<path d="M137.43 16.208H131.574C131.574 14.88 132.198 14.216 133.446 14.216H145.518C145.518 15.544 144.894 16.208 143.646 16.208H139.686V29.36C139.686 29.968 139.494 30.432 139.11 30.752C138.726 31.072 138.166 31.232 137.43 31.232V16.208Z" fill="#003366"/>
<path d="M152.789 31.232C151.461 31.232 150.269 30.976 149.213 30.464C148.173 29.936 147.357 29.216 146.765 28.304C146.173 27.376 145.877 26.352 145.877 25.232V19.952C145.877 18.832 146.173 17.824 146.765 16.928C147.357 16.016 148.173 15.304 149.213 14.792C150.269 14.264 151.461 14 152.789 14C154.133 14 155.325 14.264 156.365 14.792C157.421 15.304 158.245 16.016 158.837 16.928C159.429 17.824 159.725 18.832 159.725 19.952V25.232C159.725 26.352 159.429 27.376 158.837 28.304C158.245 29.216 157.421 29.936 156.365 30.464C155.309 30.976 154.117 31.232 152.789 31.232ZM152.789 29.264C154.277 29.264 155.437 28.896 156.269 28.16C157.101 27.424 157.517 26.44 157.517 25.208V20C157.517 18.768 157.101 17.792 156.269 17.072C155.437 16.336 154.277 15.968 152.789 15.968C151.317 15.968 150.165 16.336 149.333 17.072C148.501 17.792 148.085 18.768 148.085 20V25.208C148.085 26.44 148.501 27.424 149.333 28.16C150.165 28.896 151.317 29.264 152.789 29.264Z" fill="#003366"/>
<path d="M168.672 15.272C168.672 14.968 168.776 14.72 168.984 14.528C169.208 14.32 169.488 14.216 169.824 14.216H176.448C178 14.216 179.232 14.672 180.144 15.584C181.072 16.48 181.536 17.68 181.536 19.184C181.536 21.072 180.712 22.408 179.064 23.192V23.264C179.784 23.568 180.336 24.032 180.72 24.656C181.104 25.264 181.296 26.008 181.296 26.888V29.36C181.296 29.968 181.104 30.432 180.72 30.752C180.336 31.072 179.776 31.232 179.04 31.232V27.032C179.04 26.088 178.824 25.376 178.392 24.896C177.976 24.4 177.352 24.152 176.52 24.152H170.904V29.36C170.904 29.968 170.712 30.432 170.328 30.752C169.96 31.072 169.408 31.232 168.672 31.232V15.272ZM176.376 22.208C177.256 22.208 177.952 21.936 178.464 21.392C178.992 20.848 179.256 20.104 179.256 19.16C179.256 18.2 179.008 17.464 178.512 16.952C178.016 16.44 177.304 16.184 176.376 16.184H170.904V22.208H176.376Z" fill="#003366"/>
<path d="M185.137 15.872C185.137 15.28 185.329 14.824 185.713 14.504C186.113 14.168 186.673 14 187.393 14V29.36C187.393 29.952 187.193 30.416 186.793 30.752C186.409 31.072 185.857 31.232 185.137 31.232V15.872Z" fill="#003366"/>
<path d="M197.555 31.232C196.227 31.232 195.035 30.976 193.979 30.464C192.939 29.936 192.123 29.216 191.531 28.304C190.939 27.376 190.643 26.352 190.643 25.232V19.952C190.643 18.832 190.939 17.824 191.531 16.928C192.123 16.016 192.939 15.304 193.979 14.792C195.035 14.264 196.227 14 197.555 14C198.899 14 200.091 14.264 201.131 14.792C202.187 15.304 203.011 16.016 203.603 16.928C204.195 17.824 204.491 18.832 204.491 19.952V25.232C204.491 26.352 204.195 27.376 203.603 28.304C203.011 29.216 202.187 29.936 201.131 30.464C200.075 30.976 198.883 31.232 197.555 31.232ZM197.555 29.264C199.043 29.264 200.203 28.896 201.035 28.16C201.867 27.424 202.283 26.44 202.283 25.208V20C202.283 18.768 201.867 17.792 201.035 17.072C200.203 16.336 199.043 15.968 197.555 15.968C196.083 15.968 194.931 16.336 194.099 17.072C193.267 17.792 192.851 18.768 192.851 20V25.208C192.851 26.44 193.267 27.424 194.099 28.16C194.931 28.896 196.083 29.264 197.555 29.264Z" fill="#003366"/>
<path d="M70.8623 45.1683C69.5716 45.1683 68.5369 44.743 67.7583 43.8925C66.9839 43.0419 66.5967 41.9353 66.5967 40.5726C66.5967 39.1084 66.9924 37.9405 67.7837 37.0687C68.575 36.197 69.652 35.7611 71.0146 35.7611C72.2715 35.7611 73.2829 36.1843 74.0488 37.0306C74.819 37.877 75.2041 38.9836 75.2041 40.3505C75.2041 41.8358 74.8105 43.0101 74.0234 43.8734C73.2363 44.7367 72.1826 45.1683 70.8623 45.1683ZM70.9385 36.726C69.9821 36.726 69.2056 37.0708 68.6089 37.7606C68.0122 38.4504 67.7139 39.356 67.7139 40.4774C67.7139 41.5988 68.0037 42.5023 68.5835 43.1879C69.1675 43.8692 69.9271 44.2098 70.8623 44.2098C71.861 44.2098 72.6481 43.884 73.2236 43.2323C73.7992 42.5806 74.0869 41.6687 74.0869 40.4965C74.0869 39.2946 73.8076 38.3658 73.249 37.7098C72.6904 37.0539 71.9202 36.726 70.9385 36.726Z" fill="#0275D8"/>
<path d="M82.4023 45.016H81.3613V43.9115H81.3359C80.8535 44.7494 80.1087 45.1683 79.1016 45.1683C78.2848 45.1683 77.631 44.8785 77.1401 44.2987C76.6535 43.7147 76.4102 42.9213 76.4102 41.9183C76.4102 40.8435 76.681 39.9823 77.2227 39.3348C77.7643 38.6874 78.4858 38.3636 79.3872 38.3636C80.2801 38.3636 80.9297 38.7149 81.3359 39.4174H81.3613V35.3929H82.4023V45.016ZM81.3613 42.077V41.1185C81.3613 40.5938 81.1878 40.1495 80.8408 39.7855C80.4938 39.4216 80.0537 39.2396 79.5205 39.2396C78.8857 39.2396 78.3864 39.4724 78.0225 39.9379C77.6585 40.4034 77.4766 41.0466 77.4766 41.8676C77.4766 42.6166 77.6501 43.209 77.9971 43.6449C78.3483 44.0765 78.818 44.2924 79.4062 44.2924C79.986 44.2924 80.4557 44.0829 80.8154 43.6639C81.1794 43.245 81.3613 42.716 81.3613 42.077Z" fill="#0275D8"/>
<path d="M87.2266 45.1683C86.266 45.1683 85.4979 44.8658 84.9224 44.2606C84.3511 43.6512 84.0654 42.8451 84.0654 41.8422C84.0654 40.7504 84.3638 39.8977 84.9604 39.2841C85.5571 38.6705 86.3633 38.3636 87.3789 38.3636C88.348 38.3636 89.1034 38.662 89.645 39.2587C90.1909 39.8553 90.4639 40.6827 90.4639 41.7406C90.4639 42.7774 90.1698 43.6089 89.5815 44.2352C88.9976 44.8573 88.2126 45.1683 87.2266 45.1683ZM87.3027 39.2396C86.6341 39.2396 86.1051 39.4681 85.7158 39.9252C85.3265 40.378 85.1318 41.0043 85.1318 41.8041C85.1318 42.5743 85.3286 43.1815 85.7222 43.6259C86.1157 44.0702 86.6426 44.2924 87.3027 44.2924C87.9756 44.2924 88.4919 44.0744 88.8516 43.6385C89.2155 43.2027 89.3975 42.5827 89.3975 41.7787C89.3975 40.9662 89.2155 40.3399 88.8516 39.8998C88.4919 39.4597 87.9756 39.2396 87.3027 39.2396Z" fill="#0275D8"/>
<path d="M97.5225 45.016H96.4814V41.309C96.4814 39.9294 95.9779 39.2396 94.9707 39.2396C94.4502 39.2396 94.0186 39.4364 93.6758 39.83C93.3372 40.2193 93.168 40.7123 93.168 41.309V45.016H92.127V38.516H93.168V39.5951H93.1934C93.6842 38.7741 94.3952 38.3636 95.3262 38.3636C96.0371 38.3636 96.5809 38.5943 96.9575 39.0555C97.3341 39.5126 97.5225 40.1748 97.5225 41.0424V45.016Z" fill="#0275D8"/>
<path d="M102.505 44.9525C102.26 45.0879 101.936 45.1556 101.534 45.1556C100.396 45.1556 99.8267 44.5209 99.8267 43.2513V39.4047H98.7095V38.516H99.8267V36.9291L100.868 36.5927V38.516H102.505V39.4047H100.868V43.0673C100.868 43.5031 100.942 43.8142 101.09 44.0004C101.238 44.1866 101.483 44.2797 101.826 44.2797C102.089 44.2797 102.315 44.2077 102.505 44.0638V44.9525Z" fill="#0275D8"/>
<path d="M106.612 45.1683C105.652 45.1683 104.884 44.8658 104.308 44.2606C103.737 43.6512 103.451 42.8451 103.451 41.8422C103.451 40.7504 103.75 39.8977 104.346 39.2841C104.943 38.6705 105.749 38.3636 106.765 38.3636C107.734 38.3636 108.489 38.662 109.031 39.2587C109.577 39.8553 109.85 40.6827 109.85 41.7406C109.85 42.7774 109.556 43.6089 108.967 44.2352C108.383 44.8573 107.598 45.1683 106.612 45.1683ZM106.688 39.2396C106.02 39.2396 105.491 39.4681 105.102 39.9252C104.712 40.378 104.518 41.0043 104.518 41.8041C104.518 42.5743 104.714 43.1815 105.108 43.6259C105.501 44.0702 106.028 44.2924 106.688 44.2924C107.361 44.2924 107.878 44.0744 108.237 43.6385C108.601 43.2027 108.783 42.5827 108.783 41.7787C108.783 40.9662 108.601 40.3399 108.237 39.8998C107.878 39.4597 107.361 39.2396 106.688 39.2396Z" fill="#0275D8"/>
<path d="M112.554 45.016H111.513V35.3929H112.554V45.016Z" fill="#0275D8"/>
<path d="M117.378 45.1683C116.417 45.1683 115.649 44.8658 115.074 44.2606C114.502 43.6512 114.217 42.8451 114.217 41.8422C114.217 40.7504 114.515 39.8977 115.112 39.2841C115.708 38.6705 116.515 38.3636 117.53 38.3636C118.499 38.3636 119.255 38.662 119.796 39.2587C120.342 39.8553 120.615 40.6827 120.615 41.7406C120.615 42.7774 120.321 43.6089 119.733 44.2352C119.149 44.8573 118.364 45.1683 117.378 45.1683ZM117.454 39.2396C116.785 39.2396 116.257 39.4681 115.867 39.9252C115.478 40.378 115.283 41.0043 115.283 41.8041C115.283 42.5743 115.48 43.1815 115.874 43.6259C116.267 44.0702 116.794 44.2924 117.454 44.2924C118.127 44.2924 118.643 44.0744 119.003 43.6385C119.367 43.2027 119.549 42.5827 119.549 41.7787C119.549 40.9662 119.367 40.3399 119.003 39.8998C118.643 39.4597 118.127 39.2396 117.454 39.2396Z" fill="#0275D8"/>
<path d="M127.826 44.4955C127.826 46.8822 126.684 48.0756 124.398 48.0756C123.594 48.0756 122.892 47.9232 122.291 47.6185V46.5775C123.023 46.9838 123.721 47.1869 124.386 47.1869C125.985 47.1869 126.785 46.3363 126.785 44.6351V43.9242H126.76C126.265 44.7536 125.52 45.1683 124.525 45.1683C123.717 45.1683 123.065 44.8806 122.57 44.3051C122.079 43.7253 121.834 42.9488 121.834 41.9755C121.834 40.871 122.098 39.9929 122.627 39.3412C123.161 38.6895 123.889 38.3636 124.811 38.3636C125.687 38.3636 126.337 38.7149 126.76 39.4174H126.785V38.516H127.826V44.4955ZM126.785 42.077V41.1185C126.785 40.6023 126.61 40.16 126.258 39.7919C125.911 39.4237 125.478 39.2396 124.957 39.2396C124.314 39.2396 123.81 39.4745 123.446 39.9442C123.082 40.4097 122.9 41.0635 122.9 41.9056C122.9 42.6293 123.074 43.209 123.421 43.6449C123.772 44.0765 124.236 44.2924 124.811 44.2924C125.395 44.2924 125.869 44.085 126.233 43.6703C126.601 43.2556 126.785 42.7245 126.785 42.077Z" fill="#0275D8"/>
<path d="M130.467 36.8656C130.281 36.8656 130.122 36.8021 129.991 36.6752C129.86 36.5482 129.794 36.3874 129.794 36.1927C129.794 35.9981 129.86 35.8373 129.991 35.7103C130.122 35.5791 130.281 35.5135 130.467 35.5135C130.657 35.5135 130.818 35.5791 130.949 35.7103C131.085 35.8373 131.152 35.9981 131.152 36.1927C131.152 36.3789 131.085 36.5376 130.949 36.6688C130.818 36.8 130.657 36.8656 130.467 36.8656ZM130.975 45.016H129.934V38.516H130.975V45.016Z" fill="#0275D8"/>
<path d="M137.735 45.016H136.694V44.0004H136.668C136.216 44.779 135.549 45.1683 134.669 45.1683C134.021 45.1683 133.514 44.9969 133.146 44.6542C132.782 44.3114 132.6 43.8565 132.6 43.2894C132.6 42.0749 133.315 41.3682 134.745 41.1693L136.694 40.8964C136.694 39.7919 136.247 39.2396 135.354 39.2396C134.572 39.2396 133.865 39.5062 133.234 40.0394V38.973C133.873 38.5668 134.61 38.3636 135.443 38.3636C136.971 38.3636 137.735 39.1719 137.735 40.7885V45.016ZM136.694 41.7279L135.126 41.9437C134.644 42.0114 134.28 42.132 134.034 42.3055C133.789 42.4748 133.666 42.7774 133.666 43.2133C133.666 43.5306 133.778 43.7909 134.002 43.994C134.231 44.1929 134.534 44.2924 134.91 44.2924C135.426 44.2924 135.852 44.1125 136.186 43.7528C136.525 43.3889 136.694 42.9297 136.694 42.3754V41.7279Z" fill="#0275D8"/>
<path d="M144.33 44.0765H144.305V48.0057H143.264V38.516H144.305V39.6586H144.33C144.842 38.7953 145.591 38.3636 146.577 38.3636C147.415 38.3636 148.069 38.6556 148.539 39.2396C149.008 39.8194 149.243 40.598 149.243 41.5756C149.243 42.6631 148.979 43.5349 148.45 44.1908C147.921 44.8425 147.197 45.1683 146.279 45.1683C145.437 45.1683 144.787 44.8044 144.33 44.0765ZM144.305 41.455V42.3627C144.305 42.9001 144.478 43.3571 144.825 43.7338C145.176 44.1062 145.621 44.2924 146.158 44.2924C146.789 44.2924 147.282 44.0511 147.637 43.5687C147.997 43.0863 148.177 42.4156 148.177 41.5565C148.177 40.8329 148.01 40.2658 147.675 39.8553C147.341 39.4449 146.888 39.2396 146.317 39.2396C145.712 39.2396 145.225 39.4512 144.857 39.8744C144.489 40.2933 144.305 40.8202 144.305 41.455Z" fill="#0275D8"/>
<path d="M155.559 45.016H154.518V44.0004H154.493C154.04 44.779 153.373 45.1683 152.493 45.1683C151.846 45.1683 151.338 44.9969 150.97 44.6542C150.606 44.3114 150.424 43.8565 150.424 43.2894C150.424 42.0749 151.139 41.3682 152.569 41.1693L154.518 40.8964C154.518 39.7919 154.072 39.2396 153.179 39.2396C152.396 39.2396 151.689 39.5062 151.059 40.0394V38.973C151.698 38.5668 152.434 38.3636 153.268 38.3636C154.795 38.3636 155.559 39.1719 155.559 40.7885V45.016ZM154.518 41.7279L152.95 41.9437C152.468 42.0114 152.104 42.132 151.858 42.3055C151.613 42.4748 151.49 42.7774 151.49 43.2133C151.49 43.5306 151.602 43.7909 151.827 43.994C152.055 44.1929 152.358 44.2924 152.734 44.2924C153.251 44.2924 153.676 44.1125 154.01 43.7528C154.349 43.3889 154.518 42.9297 154.518 42.3754V41.7279Z" fill="#0275D8"/>
<path d="M160.91 39.5697C160.728 39.4301 160.466 39.3602 160.123 39.3602C159.679 39.3602 159.306 39.5697 159.006 39.9886C158.71 40.4076 158.562 40.9789 158.562 41.7025V45.016H157.521V38.516H158.562V39.8553H158.587C158.735 39.3983 158.961 39.0428 159.266 38.7889C159.571 38.5308 159.911 38.4017 160.288 38.4017C160.559 38.4017 160.766 38.4314 160.91 38.4906V39.5697Z" fill="#0275D8"/>
<path d="M166.693 45.016H165.652V44.0004H165.626C165.174 44.779 164.507 45.1683 163.627 45.1683C162.979 45.1683 162.472 44.9969 162.104 44.6542C161.74 44.3114 161.558 43.8565 161.558 43.2894C161.558 42.0749 162.273 41.3682 163.703 41.1693L165.652 40.8964C165.652 39.7919 165.205 39.2396 164.312 39.2396C163.53 39.2396 162.823 39.5062 162.192 40.0394V38.973C162.831 38.5668 163.568 38.3636 164.401 38.3636C165.929 38.3636 166.693 39.1719 166.693 40.7885V45.016ZM165.652 41.7279L164.084 41.9437C163.602 42.0114 163.238 42.132 162.992 42.3055C162.747 42.4748 162.624 42.7774 162.624 43.2133C162.624 43.5306 162.736 43.7909 162.96 43.994C163.189 44.1929 163.492 44.2924 163.868 44.2924C164.384 44.2924 164.81 44.1125 165.144 43.7528C165.483 43.3889 165.652 42.9297 165.652 42.3754V41.7279Z" fill="#0275D8"/>
<path d="M175.237 44.9525C174.991 45.0879 174.668 45.1556 174.266 45.1556C173.127 45.1556 172.558 44.5209 172.558 43.2513V39.4047H171.441V38.516H172.558V36.9291L173.599 36.5927V38.516H175.237V39.4047H173.599V43.0673C173.599 43.5031 173.673 43.8142 173.821 44.0004C173.969 44.1866 174.215 44.2797 174.558 44.2797C174.82 44.2797 175.046 44.2077 175.237 44.0638V44.9525Z" fill="#0275D8"/>
<path d="M179.344 45.1683C178.383 45.1683 177.615 44.8658 177.04 44.2606C176.468 43.6512 176.183 42.8451 176.183 41.8422C176.183 40.7504 176.481 39.8977 177.078 39.2841C177.674 38.6705 178.48 38.3636 179.496 38.3636C180.465 38.3636 181.221 38.662 181.762 39.2587C182.308 39.8553 182.581 40.6827 182.581 41.7406C182.581 42.7774 182.287 43.6089 181.699 44.2352C181.115 44.8573 180.33 45.1683 179.344 45.1683ZM179.42 39.2396C178.751 39.2396 178.222 39.4681 177.833 39.9252C177.444 40.378 177.249 41.0043 177.249 41.8041C177.249 42.5743 177.446 43.1815 177.839 43.6259C178.233 44.0702 178.76 44.2924 179.42 44.2924C180.093 44.2924 180.609 44.0744 180.969 43.6385C181.333 43.2027 181.515 42.5827 181.515 41.7787C181.515 40.9662 181.333 40.3399 180.969 39.8998C180.609 39.4597 180.093 39.2396 179.42 39.2396Z" fill="#0275D8"/>
<path d="M189.792 45.016H188.751V43.9115H188.726C188.243 44.7494 187.498 45.1683 186.491 45.1683C185.674 45.1683 185.021 44.8785 184.53 44.2987C184.043 43.7147 183.8 42.9213 183.8 41.9183C183.8 40.8435 184.071 39.9823 184.612 39.3348C185.154 38.6874 185.875 38.3636 186.777 38.3636C187.67 38.3636 188.319 38.7149 188.726 39.4174H188.751V35.3929H189.792V45.016ZM188.751 42.077V41.1185C188.751 40.5938 188.577 40.1495 188.23 39.7855C187.883 39.4216 187.443 39.2396 186.91 39.2396C186.275 39.2396 185.776 39.4724 185.412 39.9379C185.048 40.4034 184.866 41.0466 184.866 41.8676C184.866 42.6166 185.04 43.209 185.387 43.6449C185.738 44.0765 186.208 44.2924 186.796 44.2924C187.376 44.2924 187.845 44.0829 188.205 43.6639C188.569 43.245 188.751 42.716 188.751 42.077Z" fill="#0275D8"/>
<path d="M194.616 45.1683C193.656 45.1683 192.888 44.8658 192.312 44.2606C191.741 43.6512 191.455 42.8451 191.455 41.8422C191.455 40.7504 191.753 39.8977 192.35 39.2841C192.947 38.6705 193.753 38.3636 194.769 38.3636C195.738 38.3636 196.493 38.662 197.035 39.2587C197.581 39.8553 197.854 40.6827 197.854 41.7406C197.854 42.7774 197.559 43.6089 196.971 44.2352C196.387 44.8573 195.602 45.1683 194.616 45.1683ZM194.692 39.2396C194.024 39.2396 193.495 39.4681 193.105 39.9252C192.716 40.378 192.521 41.0043 192.521 41.8041C192.521 42.5743 192.718 43.1815 193.112 43.6259C193.505 44.0702 194.032 44.2924 194.692 44.2924C195.365 44.2924 195.882 44.0744 196.241 43.6385C196.605 43.2027 196.787 42.5827 196.787 41.7787C196.787 40.9662 196.605 40.3399 196.241 39.8998C195.882 39.4597 195.365 39.2396 194.692 39.2396Z" fill="#0275D8"/>
<path d="M199.123 44.7811V43.6639C199.69 44.0829 200.314 44.2924 200.996 44.2924C201.91 44.2924 202.367 43.9877 202.367 43.3783C202.367 43.2048 202.326 43.0588 202.246 42.9403C202.17 42.8176 202.064 42.7097 201.929 42.6166C201.798 42.5235 201.641 42.441 201.459 42.369C201.281 42.2928 201.089 42.2146 200.881 42.1342C200.594 42.0199 200.34 41.9056 200.12 41.7914C199.904 41.6729 199.722 41.5417 199.574 41.3978C199.43 41.2497 199.32 41.0826 199.244 40.8964C199.172 40.7102 199.136 40.4922 199.136 40.2426C199.136 39.9379 199.206 39.6691 199.345 39.4364C199.485 39.1994 199.671 39.0026 199.904 38.8461C200.137 38.6853 200.401 38.5647 200.697 38.4843C200.998 38.4038 201.307 38.3636 201.624 38.3636C202.187 38.3636 202.69 38.461 203.135 38.6556V39.7094C202.657 39.3962 202.106 39.2396 201.484 39.2396C201.29 39.2396 201.114 39.2629 200.958 39.3094C200.801 39.3518 200.666 39.4131 200.551 39.4935C200.441 39.5739 200.354 39.6713 200.291 39.7855C200.232 39.8955 200.202 40.0183 200.202 40.1537C200.202 40.323 200.232 40.4647 200.291 40.579C200.354 40.6932 200.445 40.7948 200.564 40.8837C200.682 40.9725 200.826 41.0529 200.996 41.1249C201.165 41.1968 201.357 41.2751 201.573 41.3597C201.861 41.4698 202.119 41.584 202.348 41.7025C202.576 41.8168 202.771 41.948 202.932 42.0961C203.092 42.2399 203.215 42.4071 203.3 42.5975C203.389 42.788 203.433 43.0144 203.433 43.2767C203.433 43.5983 203.361 43.8776 203.217 44.1146C203.078 44.3516 202.889 44.5484 202.652 44.705C202.415 44.8615 202.142 44.9779 201.833 45.0541C201.525 45.1302 201.201 45.1683 200.862 45.1683C200.194 45.1683 199.614 45.0393 199.123 44.7811Z" fill="#0275D8"/>
</svg>
